<?xml version="1.0" encoding="UTF-8"?>
<svg id="Layer_2" data-name="Layer 2" xmlns="http://www.w3.org/2000/svg" viewBox="0 0 267.94 202.67">
  <defs>
    <style>
      .cls-1 {
        fill: #fff;
      }
    </style>
  </defs>
  <g id="Layer_1-2" data-name="Layer 1">
    <g id="M6FaOj.tif">
      <g>
        <path class="cls-1" d="M95.15,175.64c-1.94,0-3.88,0-5.83,0-24.65,0-49.31,.01-73.96,0-11,0-15.34-4.4-15.35-15.53-.02-31.82-.02-63.63,0-95.45,0-10.68,4.54-15.17,15.21-15.21,3.45-.01,6.9,0,10.56,0v12.58H12.82v101.18c28.2-.89,56.05,.14,82.34,12.43Z"/>
        <path class="cls-1" d="M135.56,175.44c27.7-11.94,55.51-13.24,84.17-12.19V76.24h12.37c.08,1.82,.23,3.57,.23,5.32,.02,26.31,.02,52.62,0,78.93,0,10.74-4.38,15.12-15.15,15.13-25.98,.03-51.95,.03-77.93,.04-.8,0-1.59-.09-3.7-.21Z"/>
        <path class="cls-1" d="M179.99,9.32c0,6.02,0,11.34,0,16.66,0,34.16-.06,68.32,.09,102.48,.02,3.55-1.23,5.07-4.28,6.7-15.67,8.32-31.15,16.98-45.97,25.12,6.15-6.17,12.93-13.35,20.14-20.07,5.59-5.22,11.8-9.77,17.55-14.84,1.3-1.15,2.58-3.19,2.58-4.83,.15-32.49,.11-64.98,.09-97.48,0-.78-.2-1.56-.38-2.85-14.79,4.11-28.04,10.7-40.64,18.76,14.35-13.76,31.03-23.48,50.82-29.65Z"/>
        <path class="cls-1" d="M103.49,160.63c-16.29-8.84-32.61-17.64-48.83-26.62-1.1-.61-2.1-2.52-2.1-3.83-.11-39.99-.09-79.98-.09-120.75,19.6,5.81,36.23,15.74,50.74,29.47-12.59-8.05-25.86-14.57-40.98-18.82,0,2.26,0,3.87,0,5.48,0,31.16,.05,62.33-.07,93.49-.01,3.17,1.1,4.99,3.43,7.09,12.1,10.92,23.95,22.13,35.86,33.26,.67,.63,1.19,1.41,1.78,2.13,.09-.3,.18-.59,.27-.89Z"/>
        <path class="cls-1" d="M198.13,155.17c-24.1-.02-47,4.78-69.02,13.92,16.25-12.31,34.44-20.03,54.49-23.11,4-.62,5.15-1.91,5.13-5.89-.15-34.12-.09-68.25-.09-102.37v-6.17h9.49v123.62Z"/>
        <path class="cls-1" d="M102.09,168.05c-21.85-8.3-44.31-12.93-67.84-12.9V31.61h9.48c0,1.7,0,3.46,0,5.22,0,34.3,.07,68.59-.09,102.89-.02,4.1,.92,5.63,5.28,6.28,18.38,2.73,35.24,9.6,50.65,19.99,.9,.6,1.68,1.37,2.52,2.05Z"/>
        <path class="cls-1" d="M248.92,62.3h-29.09v-29.02c6.79,0,13.39,.03,20,0,5.68-.03,9.45-3.89,9.48-9.64,.02-3.11,0-6.23,0-9.61h18.63v18.76c-2.89,0-5.8,0-8.71,0-6.8,.02-10.3,3.51-10.31,10.28,0,6.29,0,12.57,0,19.24Z"/>
        <path class="cls-1" d="M106.16,190.5c1.69-6.97,1.69-6.75,13.99-6.78,4.71-.01,5.55,2.49,5.59,6.77,7.5,0,14.77-.08,22.04,.03,5.17,.07,6.89,2.13,6.53,7.12-.25,3.55-2.29,5.01-5.56,5.02-21.62,.03-43.25,.02-64.87,.02-3.88,0-5.72-1.92-5.77-5.86-.05-4.13,1.76-6.28,5.9-6.3,7.31-.03,14.62,0,22.16,0Z"/>
        <path class="cls-1" d="M246.06,10.5h-10.51V0h10.51V10.5Z"/>
      </g>
    </g>
  </g>
</svg>